<?xml version="1.0" standalone="no"?>
<!DOCTYPE svg PUBLIC "-//W3C//DTD SVG 20010904//EN"
 "http://www.w3.org/TR/2001/REC-SVG-20010904/DTD/svg10.dtd">
<svg version="1.0" xmlns="http://www.w3.org/2000/svg"
 width="600.000000pt" height="600.000000pt" viewBox="0 0 600.000000 600.000000"
 preserveAspectRatio="xMidYMid meet">

<g transform="translate(0.000000,600.000000) scale(0.100000,-0.100000)"
fill="#000000" stroke="none">
<path d="M3300 5020 c-112 -11 -183 -28 -305 -72 -149 -54 -218 -92 -292 -161
-76 -72 -125 -143 -149 -221 -12 -39 -25 -61 -37 -64 -33 -9 -157 -71 -202
-102 -51 -35 -134 -153 -164 -235 -74 -198 -36 -404 99 -528 33 -31 100 -76
163 -108 59 -31 107 -55 107 -53 0 3 -23 50 -51 106 -37 74 -53 118 -56 158
-7 78 2 84 97 59 160 -43 150 -37 188 -112 21 -41 56 -88 86 -115 100 -93 136
-133 150 -166 7 -18 32 -51 54 -73 49 -49 56 -81 50 -255 -3 -108 -7 -130 -30
-180 -48 -103 -148 -179 -268 -204 l-55 -11 60 -19 c40 -12 91 -18 155 -19 87
0 100 3 156 31 l61 31 8 -71 c11 -101 8 -133 -19 -190 -29 -63 -83 -126 -144
-169 -47 -32 -47 -32 -172 -32 -139 1 -178 11 -339 86 -197 92 -420 277 -540
449 -130 185 -215 409 -242 633 -7 63 -7 57 -4 -43 16 -460 277 -920 670
-1185 319 -214 621 -254 898 -119 l52 25 -57 -55 c-67 -64 -132 -92 -258 -110
l-85 -12 47 -12 c73 -19 223 -15 311 8 171 43 362 141 519 267 167 133 399
386 493 538 20 33 34 51 31 41 -4 -11 -26 -98 -50 -195 -67 -269 -98 -337
-231 -492 -498 -581 -1324 -754 -2000 -417 -532 265 -890 775 -981 1398 -13
90 -15 158 -11 310 8 305 56 511 178 768 168 355 439 644 764 814 128 67 92
59 -50 -11 -635 -313 -1068 -921 -1154 -1621 -16 -123 -13 -401 4 -534 48
-363 209 -738 442 -1026 73 -90 233 -250 323 -321 283 -226 633 -378 1005
-435 149 -23 441 -23 590 0 652 100 1202 477 1524 1046 94 166 179 386 212
547 8 39 17 59 22 54 5 -5 10 -90 11 -188 1 -192 -10 -278 -50 -397 -13 -39
-21 -66 -16 -61 22 26 113 156 140 200 33 54 79 184 111 310 41 160 53 259 58
473 5 194 7 211 21 190 21 -32 84 -98 94 -98 4 0 -2 21 -13 46 -34 82 -69 217
-89 350 -10 71 -31 169 -45 219 -28 95 -95 247 -122 277 -20 23 -11 33 15 19
12 -6 25 -11 30 -11 15 0 -74 257 -118 337 -120 221 -246 348 -445 452 -44 23
-90 49 -103 59 l-23 18 135 84 c75 46 136 85 136 86 0 2 -15 1 -32 -2 -150
-20 -308 -35 -444 -44 -169 -11 -195 -9 -404 29 -108 20 -290 42 -325 40 -11
-1 -54 -5 -95 -9z m311 -141 c75 -14 178 -24 299 -28 l185 -6 -58 -19 c-32
-10 -56 -20 -54 -22 3 -3 49 -16 103 -30 101 -25 300 -117 411 -191 74 -49
190 -176 245 -269 73 -122 76 -118 -64 -69 -68 24 -132 47 -143 51 -11 4 39
-53 110 -127 182 -187 230 -285 279 -565 31 -178 38 -304 29 -537 l-8 -187
-70 106 -70 106 -8 -83 c-26 -281 -100 -500 -244 -717 -66 -99 -313 -353 -395
-406 -31 -20 -60 -36 -63 -36 -3 0 15 25 39 54 129 158 220 390 247 625 14
124 5 342 -21 472 -11 55 -20 110 -21 122 0 13 -8 1 -19 -29 -43 -122 -125
-254 -232 -377 l-33 -37 -1 137 c0 79 -7 170 -16 213 l-15 75 -11 -50 c-6 -27
-16 -84 -23 -125 -24 -155 -93 -316 -220 -510 -56 -85 -252 -300 -264 -288 -2
2 7 31 20 64 37 91 95 340 95 405 0 62 -17 159 -28 159 -4 0 -41 -87 -82 -193
-68 -175 -79 -196 -125 -242 -63 -64 -132 -98 -209 -103 l-60 -5 37 33 c20 17
50 59 67 93 50 102 62 183 64 447 1 196 4 241 18 273 9 20 16 37 14 37 -2 0
-33 -38 -69 -84 -70 -89 -107 -121 -107 -90 0 9 14 58 31 108 31 89 31 93 25
216 -4 69 -12 154 -17 190 -10 66 -51 166 -89 221 -30 41 -11 38 91 -13 140
-70 201 -139 223 -255 l13 -68 11 40 c21 80 24 139 8 185 -8 24 -14 46 -12 47
9 10 92 -19 127 -43 64 -44 134 -128 160 -190 l23 -58 12 69 c18 99 17 224 -1
275 -8 23 -15 44 -15 45 0 2 21 -3 48 -11 70 -22 200 -29 260 -14 50 12 70 30
35 30 -66 1 -183 97 -243 200 -48 81 -83 115 -140 135 -25 8 -51 17 -58 20
-15 6 -10 16 50 109 36 56 39 58 36 29 -5 -39 1 -41 29 -10 31 33 50 76 58
132 4 28 11 58 16 67 17 31 67 48 175 59 164 17 165 25 4 32 -142 5 -355 27
-456 47 -39 8 -64 7 -110 -5 -39 -10 -78 -13 -119 -9 -51 5 -73 2 -135 -20
-41 -15 -103 -30 -137 -33 -58 -5 -66 -4 -89 18 -34 31 -64 91 -64 125 0 33
63 97 149 153 55 35 91 50 176 70 35 8 29 9 -50 10 -63 1 -85 5 -74 11 33 19
157 43 264 50 61 4 117 8 126 8 9 1 68 -8 130 -19z m-829 -352 c-4 -46 -1 -57
22 -85 35 -41 175 -132 204 -132 12 0 39 7 59 15 47 20 83 19 83 0 0 -28 38
-91 74 -122 69 -61 160 -68 258 -20 68 33 90 70 92 151 1 73 22 87 50 33 14
-25 18 -49 14 -99 -5 -81 -35 -125 -111 -166 -49 -25 -59 -27 -172 -26 -101 1
-136 6 -222 31 -56 17 -100 26 -97 22 21 -35 217 -111 316 -123 51 -7 72 -19
91 -51 3 -7 -32 -10 -101 -10 -59 0 -156 -6 -215 -14 l-108 -14 -67 31 c-66
30 -173 61 -242 69 -22 3 -60 -5 -103 -21 -37 -14 -74 -26 -82 -26 -8 0 -31
14 -50 32 -60 52 -124 36 -164 -40 l-20 -37 0 60 c-1 33 6 89 15 125 31 134
100 207 250 264 53 20 109 40 125 43 38 7 39 10 90 141 13 34 16 27 11 -31z
m756 -186 c4 -65 -14 -96 -71 -122 -102 -46 -221 2 -242 97 l-7 29 20 -30 c36
-55 68 -78 120 -83 50 -4 96 11 122 43 17 21 7 29 -20 15 -46 -25 -73 53 -28
84 19 14 25 14 44 1 21 -13 23 -13 29 6 12 36 30 14 33 -40z"/>
<path d="M2642 4288 c-19 -19 -15 -25 26 -41 50 -20 122 -31 122 -19 0 9 -110
72 -127 72 -5 0 -14 -5 -21 -12z"/>
</g>
</svg>
